<svg width="128" height="119" viewBox="0 0 128 119" fill="none" xmlns="http://www.w3.org/2000/svg">
<path fill-rule="evenodd" clip-rule="evenodd" d="M88 0H40L20 25H0V119H128V25H108L88 0ZM11 42C7.68629 42 5 39.3137 5 36C5 32.6863 7.68629 30 11 30C14.3137 30 17 32.6863 17 36C17 39.3137 14.3137 42 11 42ZM31 72C31 90.2254 45.7746 105 64 105C82.2254 105 97 90.2254 97 72C97 53.7746 82.2254 39 64 39C45.7746 39 31 53.7746 31 72ZM64 92C52.9543 92 44 83.0457 44 72C44 60.9543 52.9543 52 64 52C75.0457 52 84 60.9543 84 72C84 83.0457 75.0457 92 64 92Z" fill="#222222"/>
</svg>
