<svg width="128" height="128" viewBox="0 0 128 128" fill="none" xmlns="http://www.w3.org/2000/svg">
<path fill-rule="evenodd" clip-rule="evenodd" d="M31.9712 26.8996C39.6343 20.2309 49.3901 15.9051 60.123 15.0379V0C45.1878 0.921005 31.6386 6.96426 21.2104 16.3946L31.9712 26.8996ZM68.123 15.0379V0C82.1583 0.865512 94.9696 6.25462 105.117 14.7273L94.5969 25.5035C87.2096 19.6291 78.0873 15.843 68.123 15.0379ZM100.435 30.9758L110.928 20.227C120.746 30.75 127.057 44.5873 128 59.877H112.962C112.066 48.7911 107.481 38.7475 100.435 30.9758ZM112.624 105.635C121.47 95.3706 127.113 82.2672 128 67.877H112.962C112.128 78.1948 108.099 87.6098 101.863 95.1305L112.624 105.635ZM107.035 111.36L96.2747 100.855C88.6116 107.523 78.8558 111.849 68.123 112.716V127.754C83.0581 126.833 96.6073 120.79 107.035 111.36ZM60.123 127.754V112.716C49.4521 111.854 39.7471 107.573 32.1042 100.97L21.611 111.719C31.9845 120.943 45.3783 126.845 60.123 127.754ZM15.9739 106.041L26.4939 95.2645C20.1955 87.7217 16.1224 78.2562 15.2839 67.877H0.245941C1.14506 82.4572 6.92582 95.7166 15.9739 106.041ZM0.245941 59.877H15.2839C16.1175 49.5593 20.1474 40.1444 26.3824 32.6236L15.6216 22.1187C6.77589 32.3835 1.13333 45.487 0.245941 59.877ZM91.6627 44.7534L63.1825 76.9073L63.1499 76.8631C62.907 77.087 62.6494 77.2999 62.3773 77.5003C58.3751 80.448 52.7411 79.5932 49.7934 75.591C46.8457 71.5888 47.7005 65.9548 51.7027 63.0071C51.9749 62.8067 52.2546 62.6238 52.5405 62.4583L52.5079 62.4141L91.6627 44.7534Z" fill="#222222"/>
</svg>
